<?xml version="1.0" standalone="no"?>
<!DOCTYPE svg PUBLIC "-//W3C//DTD SVG 20010904//EN"
 "http://www.w3.org/TR/2001/REC-SVG-20010904/DTD/svg10.dtd">
<svg version="1.0" xmlns="http://www.w3.org/2000/svg"
 width="2502.000000pt" height="2501.000000pt" viewBox="0 0 2502.000000 2501.000000"
 preserveAspectRatio="xMidYMid meet">

<g transform="translate(0.000000,2501.000000) scale(0.100000,-0.100000)"
fill="#000000" stroke="none">
<path d="M10638 16934 l-1878 -1196 0 -4429 0 -4429 850 0 850 0 0 3040 0
3040 780 0 780 0 2 1288 3 1289 244 -149 c134 -82 245 -147 247 -145 2 2 3
653 2 1446 l-3 1441 -1877 -1196z"/>
<path d="M12500 13825 l0 -865 810 0 810 0 0 -3040 0 -3040 1070 0 1070 0 0
2733 0 2734 -1827 1138 c-1006 627 -1852 1154 -1880 1172 l-53 34 0 -866z"/>
<path d="M10930 9695 l0 -2815 1355 0 1355 0 0 2815 0 2815 -1355 0 -1355 0 0
-2815z"/>
</g>
</svg>
