<?xml version="1.0" standalone="no"?>
<!DOCTYPE svg PUBLIC "-//W3C//DTD SVG 20010904//EN"
 "http://www.w3.org/TR/2001/REC-SVG-20010904/DTD/svg10.dtd">
<svg version="1.0" xmlns="http://www.w3.org/2000/svg"
 width="2503.000000pt" height="2500.000000pt" viewBox="0 0 2503.000000 2500.000000"
 preserveAspectRatio="xMidYMid meet">

<g transform="translate(0.000000,2500.000000) scale(0.100000,-0.100000)"
fill="#000000" stroke="none">
<path d="M10654 19500 c-1024 -652 -1869 -1192 -1878 -1199 -15 -12 -16 -390
-14 -4435 l3 -4421 850 0 850 0 3 3038 2 3037 775 0 775 0 2 1290 3 1290 245
-150 245 -150 3 726 c1 399 1 1048 0 1443 l-3 717 -1861 -1186z"/>
<path d="M12500 16380 l0 -860 810 0 810 0 2 -3037 3 -3038 1073 -3 1072 -2 0
2729 0 2730 -27 19 c-69 48 -3724 2322 -3733 2322 -7 0 -10 -283 -10 -860z"/>
<path d="M10935 15058 c-3 -7 -4 -1273 -3 -2813 l3 -2800 1353 -3 1352 -2 0
2815 0 2815 -1350 0 c-1071 0 -1352 -3 -1355 -12z"/>
<path d="M10450 7371 l0 -921 533 0 c568 0 659 5 792 47 379 120 632 439 652
825 23 439 -261 817 -702 935 l-100 27 -587 4 -588 4 0 -921z m1130 505 c203
-36 385 -204 429 -396 6 -25 11 -81 11 -125 0 -44 -5 -100 -11 -125 -30 -131
-146 -278 -269 -340 -118 -60 -135 -62 -497 -67 l-333 -5 0 536 0 536 298 0
c203 -1 321 -5 372 -14z"/>
<path d="M14960 7365 l0 -915 220 0 220 0 2 566 3 567 285 -462 285 -461 140
0 141 0 284 461 285 461 3 -566 2 -566 220 0 220 0 0 915 0 915 -264 0 -264 0
-313 -535 -313 -535 -29 47 c-16 27 -157 267 -314 536 l-285 487 -264 0 -264
0 0 -915z"/>
<path d="M8626 8238 c-8 -18 -203 -420 -435 -892 -232 -473 -421 -864 -421
-868 0 -4 111 -8 248 -8 l247 0 74 165 73 165 485 -2 485 -3 76 -162 75 -163
244 0 c229 0 243 1 235 18 -5 9 -199 414 -432 900 l-423 882 -258 0 -259 0
-14 -32z m417 -729 l154 -324 -300 -3 c-165 -1 -302 0 -304 2 -3 3 62 151 143
330 81 180 149 325 151 323 2 -2 72 -150 156 -328z"/>
<path d="M12970 7355 l0 -905 780 0 780 0 0 185 0 185 -550 0 -550 0 0 720 0
720 -230 0 -230 0 0 -905z"/>
<path d="M7762 5943 l3 -128 4750 0 4750 0 3 128 3 127 -4756 0 -4756 0 3
-127z"/>
<path d="M10356 5464 c-147 -54 -191 -204 -93 -320 14 -17 75 -64 134 -105
133 -91 217 -172 226 -217 21 -105 -108 -196 -230 -161 -46 12 -112 66 -144
118 l-15 24 -42 -22 c-23 -12 -42 -25 -42 -30 0 -18 81 -112 118 -136 84 -55
189 -70 291 -39 71 21 154 100 171 164 22 83 -10 171 -89 243 -22 19 -94 72
-161 117 -127 85 -160 121 -160 178 0 45 24 77 71 96 74 30 136 13 205 -55
l42 -41 41 28 41 27 -23 31 c-31 40 -109 93 -155 106 -51 14 -140 11 -186 -6z"/>
<path d="M14146 5464 c-144 -35 -277 -141 -339 -271 -30 -64 -32 -75 -32 -178
0 -104 2 -114 32 -176 40 -81 135 -174 221 -218 220 -111 499 -72 668 94 177
174 178 436 1 609 -34 33 -86 73 -114 89 -115 62 -302 84 -437 51z m240 -85
c128 -23 246 -106 301 -210 25 -48 28 -64 28 -149 0 -89 -2 -99 -34 -158 -154
-285 -629 -276 -772 14 -29 58 -31 69 -27 151 2 66 9 100 26 134 50 102 148
179 271 211 78 20 126 22 207 7z"/>
<path d="M10840 5415 l0 -45 110 0 110 0 0 -395 0 -395 55 0 55 0 0 395 0 395
115 0 115 0 0 45 0 45 -280 0 -280 0 0 -45z"/>
<path d="M11543 5123 c3 -245 8 -349 18 -376 20 -60 80 -120 151 -152 89 -41
217 -47 303 -15 73 28 156 106 176 165 9 29 14 135 16 378 l4 337 -50 0 -50 0
-3 -327 -3 -328 -25 -45 c-16 -28 -43 -55 -74 -74 -42 -26 -58 -30 -120 -31
-61 0 -82 5 -132 30 -47 24 -63 39 -81 75 -22 43 -23 52 -23 372 l0 328 -56 0
-56 0 5 -337z"/>
<path d="M12450 5021 l0 -441 223 0 c154 0 243 5 290 15 207 44 337 204 337
415 -1 204 -115 357 -315 421 -62 19 -98 22 -302 27 l-233 4 0 -441z m471 323
c119 -27 217 -110 254 -214 20 -56 19 -184 -1 -243 -22 -65 -84 -131 -157
-167 -70 -34 -182 -49 -364 -50 l-103 0 0 352 0 351 150 -6 c83 -4 182 -14
221 -23z"/>
<path d="M13480 5020 l0 -440 50 0 50 0 0 440 0 440 -50 0 -50 0 0 -440z"/>
</g>
</svg>
